<svg width="100" height="100" viewBox="0 0 100 100" fill="none" xmlns="http://www.w3.org/2000/svg">
<path fill-rule="evenodd" clip-rule="evenodd" d="M73.1427 46.6432C73.6451 47.0853 74.0416 47.635 74.3026 48.2513C74.741 49.0873 74.9928 50.0065 75.0513 50.9487C75.0788 51.3539 75.0916 51.5413 75.0043 51.628C74.9292 51.7026 74.7801 51.7026 74.5026 51.7026H62.4H62.3487H62.3436C61.6923 51.7026 61.6923 51.6 61.6923 51.0513C61.7922 50.3281 62.0001 49.6288 62.3045 48.975C62.5922 48.2932 62.9839 47.6689 63.4938 47.1729C63.5352 47.1267 63.5773 47.081 63.6199 47.0358C63.6622 46.9909 63.7052 46.9465 63.7487 46.9026C63.8427 46.8412 63.9377 46.7815 64.0336 46.7236C64.9598 46.0476 65.88 45.7718 66.8675 45.5881C67.0568 45.5462 67.2477 45.51 67.44 45.4797C67.9275 45.4029 68.4196 45.3647 68.9113 45.3647C69.0156 45.3646 69.1199 45.3663 69.2242 45.3697C69.9749 45.3898 70.7226 45.4993 71.4513 45.6974H71.4C71.4722 45.7176 71.5437 45.7396 71.6145 45.7634C72.1767 45.9517 72.6964 46.2506 73.1427 46.6432ZM20 0H80C85.3043 0 90.3914 2.10714 94.1421 5.85786C97.8929 9.60859 100 14.6957 100 20V80C100 85.3043 97.8929 90.3914 94.1421 94.1421C90.3914 97.8929 85.3043 100 80 100H20C14.6957 100 9.60859 97.8929 5.85786 94.1421C2.10714 90.3914 0 85.3043 0 80V20C0 14.6957 2.10714 9.60859 5.85786 5.85786C9.60859 2.10714 14.6957 0 20 0ZM60.8513 31.2974C60.4 31.2974 60.4 31.4513 60.4 31.8462V35.1026C60.4 35.4504 60.4 35.6248 60.4872 35.7122C60.5748 35.8 60.7504 35.8 61.1026 35.8H76.8C77.0667 35.8 77.0513 35.5026 77.0513 35.5026V31.2974H60.8513ZM24.9043 70.744C33.5113 70.9739 40.6853 71.1656 45.4 68.6H45.3487C47.2413 67.5417 48.7911 65.9634 49.8147 64.0518C50.8383 62.1403 51.2929 59.9755 51.1245 57.8136C50.9562 55.6518 50.1721 53.5834 48.8649 51.8533C47.5578 50.1232 45.7823 48.8038 43.7487 48.0513C45.9549 46.9667 47.6844 45.1075 48.6067 42.8287C49.529 40.5499 49.5795 38.0112 48.7487 35.6974C47.1487 30.4 41.2 29.1487 36.2 29.1487H16.6513V70.6C19.5163 70.6 22.2771 70.6738 24.9043 70.744ZM62.6513 56.8H82.6C82.7286 56.8168 82.8593 56.8039 82.982 56.7621C83.1048 56.7204 83.2163 56.651 83.308 56.5593C83.3997 56.4676 83.4691 56.3561 83.5108 56.2333C83.5526 56.1106 83.5655 55.9799 83.5487 55.8513C83.5487 44.8513 76.3487 37.0513 65 39.5026C61.0845 40.4988 57.7127 42.9843 55.6025 46.4297C53.4924 49.8751 52.8107 54.0082 53.7026 57.9487C53.8507 59.5173 54.2907 61.0444 55 62.4513C56.1477 64.5625 57.7662 66.3811 59.7301 67.7658C61.694 69.1506 63.9505 70.0644 66.3246 70.4364C68.6987 70.8083 71.1265 70.6284 73.4198 69.9107C75.7132 69.1929 77.8103 67.9565 79.5487 66.2974C80.8524 64.7028 81.8677 62.8927 82.5487 60.9487C82.6513 60.6 82.2513 60.6 82.2513 60.6H75.7487C75.6 60.6 75.3487 60.9026 75.3487 60.9026C74.4923 62.3516 73.1765 63.473 71.6102 64.089C70.0438 64.7049 68.3165 64.7801 66.7026 64.3026C63.6462 63.8513 62.2974 60.7487 61.6974 57.8C61.6 57.0974 62.1026 56.8 62.6513 56.8ZM24.8984 35.9078V44.1386C24.8984 44.6719 25.0933 44.8668 25.6318 44.8668H30.0164C33.3292 44.8668 37.919 44.8309 38.9446 42.9694C39.9702 41.1078 39.9907 40.3437 39.9497 39.8104L39.9483 39.7899C39.9112 39.2327 39.7941 37.4764 37.6164 36.2001C35.7968 35.1271 32.4513 35.1625 28.2646 35.2068C27.3892 35.2161 26.477 35.2258 25.5343 35.2258C24.8984 35.2258 24.8984 35.4206 24.8984 35.9078ZM41.0672 54.9635C40.8751 54.1629 40.5132 53.4129 40.0061 52.7642C38.3787 50.8446 36.306 50.8679 33.1938 50.9029C32.7558 50.9078 32.2972 50.913 31.8164 50.913H25.5343C24.8984 50.913 24.8984 51.1078 24.8984 51.595V61.3386C24.8984 61.9694 25.0933 61.9694 25.5805 61.9694H35.0318C36.1698 61.9591 37.295 61.7275 38.3446 61.2873C39.0582 60.8766 39.6752 60.3174 40.154 59.6476C40.6328 58.9778 40.9621 58.2129 41.1196 57.4048C41.2771 56.5967 41.2593 55.7641 41.0672 54.9635Z" fill="white"/>
<path fill-rule="evenodd" clip-rule="evenodd" d="M73.1427 46.6432C73.6451 47.0853 74.0416 47.635 74.3026 48.2513C74.741 49.0873 74.9928 50.0065 75.0513 50.9487C75.0788 51.3539 75.0916 51.5413 75.0043 51.628C74.9292 51.7026 74.7801 51.7026 74.5026 51.7026H62.4H62.3487H62.3436C61.6923 51.7026 61.6923 51.6 61.6923 51.0513C61.7922 50.3281 62.0001 49.6288 62.3045 48.975C62.5922 48.2932 62.9839 47.6689 63.4938 47.1729C63.5352 47.1267 63.5773 47.081 63.6199 47.0358C63.6622 46.9909 63.7052 46.9465 63.7487 46.9026C63.8427 46.8412 63.9377 46.7815 64.0336 46.7236C64.9598 46.0476 65.88 45.7718 66.8675 45.5881C67.0568 45.5462 67.2477 45.51 67.44 45.4797C67.9275 45.4029 68.4196 45.3647 68.9113 45.3647C69.0156 45.3646 69.1199 45.3663 69.2242 45.3697C69.9749 45.3898 70.7226 45.4993 71.4513 45.6974H71.4C71.4722 45.7176 71.5437 45.7396 71.6145 45.7634C72.1767 45.9517 72.6964 46.2506 73.1427 46.6432ZM20 0H80C85.3043 0 90.3914 2.10714 94.1421 5.85786C97.8929 9.60859 100 14.6957 100 20V80C100 85.3043 97.8929 90.3914 94.1421 94.1421C90.3914 97.8929 85.3043 100 80 100H20C14.6957 100 9.60859 97.8929 5.85786 94.1421C2.10714 90.3914 0 85.3043 0 80V20C0 14.6957 2.10714 9.60859 5.85786 5.85786C9.60859 2.10714 14.6957 0 20 0ZM60.8513 31.2974C60.4 31.2974 60.4 31.4513 60.4 31.8462V35.1026C60.4 35.4504 60.4 35.6248 60.4872 35.7122C60.5748 35.8 60.7504 35.8 61.1026 35.8H76.8C77.0667 35.8 77.0513 35.5026 77.0513 35.5026V31.2974H60.8513ZM24.9043 70.744C33.5113 70.9739 40.6853 71.1656 45.4 68.6H45.3487C47.2413 67.5417 48.7911 65.9634 49.8147 64.0518C50.8383 62.1403 51.2929 59.9755 51.1245 57.8136C50.9562 55.6518 50.1721 53.5834 48.8649 51.8533C47.5578 50.1232 45.7823 48.8038 43.7487 48.0513C45.9549 46.9667 47.6844 45.1075 48.6067 42.8287C49.529 40.5499 49.5795 38.0112 48.7487 35.6974C47.1487 30.4 41.2 29.1487 36.2 29.1487H16.6513V70.6C19.5163 70.6 22.2771 70.6738 24.9043 70.744ZM62.6513 56.8H82.6C82.7286 56.8168 82.8593 56.8039 82.982 56.7621C83.1048 56.7204 83.2163 56.651 83.308 56.5593C83.3997 56.4676 83.4691 56.3561 83.5108 56.2333C83.5526 56.1106 83.5655 55.9799 83.5487 55.8513C83.5487 44.8513 76.3487 37.0513 65 39.5026C61.0845 40.4988 57.7127 42.9843 55.6025 46.4297C53.4924 49.8751 52.8107 54.0082 53.7026 57.9487C53.8507 59.5173 54.2907 61.0444 55 62.4513C56.1477 64.5625 57.7662 66.3811 59.7301 67.7658C61.694 69.1506 63.9505 70.0644 66.3246 70.4364C68.6987 70.8083 71.1265 70.6284 73.4198 69.9107C75.7132 69.1929 77.8103 67.9565 79.5487 66.2974C80.8524 64.7028 81.8677 62.8927 82.5487 60.9487C82.6513 60.6 82.2513 60.6 82.2513 60.6H75.7487C75.6 60.6 75.3487 60.9026 75.3487 60.9026C74.4923 62.3516 73.1765 63.473 71.6102 64.089C70.0438 64.7049 68.3165 64.7801 66.7026 64.3026C63.6462 63.8513 62.2974 60.7487 61.6974 57.8C61.6 57.0974 62.1026 56.8 62.6513 56.8ZM24.8984 35.9078V44.1386C24.8984 44.6719 25.0933 44.8668 25.6318 44.8668H30.0164C33.3292 44.8668 37.919 44.8309 38.9446 42.9694C39.9702 41.1078 39.9907 40.3437 39.9497 39.8104L39.9483 39.7899C39.9112 39.2327 39.7941 37.4764 37.6164 36.2001C35.7968 35.1271 32.4513 35.1625 28.2646 35.2068C27.3892 35.2161 26.477 35.2258 25.5343 35.2258C24.8984 35.2258 24.8984 35.4206 24.8984 35.9078ZM41.0672 54.9635C40.8751 54.1629 40.5132 53.4129 40.0061 52.7642C38.3787 50.8446 36.306 50.8679 33.1938 50.9029C32.7558 50.9078 32.2972 50.913 31.8164 50.913H25.5343C24.8984 50.913 24.8984 51.1078 24.8984 51.595V61.3386C24.8984 61.9694 25.0933 61.9694 25.5805 61.9694H35.0318C36.1698 61.9591 37.295 61.7275 38.3446 61.2873C39.0582 60.8766 39.6752 60.3174 40.154 59.6476C40.6328 58.9778 40.9621 58.2129 41.1196 57.4048C41.2771 56.5967 41.2593 55.7641 41.0672 54.9635Z" fill="white"/>
</svg>
