<svg width="20" height="20" viewBox="0 0 20 20" fill="none" xmlns="http://www.w3.org/2000/svg">
<g clip-path="url(#clip0_1110_6155)">
<path d="M16.195 11.885C16.4289 11.8856 16.6589 11.9033 16.885 11.9383C16.885 11.9425 16.8808 11.9467 16.8808 11.95C16.7911 12.1758 16.6849 12.3947 16.5633 12.605L15.5475 14.36C15.0914 15.1524 14.4343 15.8106 13.6427 16.2681C12.851 16.7256 11.9527 16.9663 11.0383 16.9658H9.01167C8.09734 16.9656 7.1992 16.7246 6.40752 16.2672C5.61585 15.8098 4.95854 15.152 4.50167 14.36L3.48667 12.605C3.02923 11.813 2.7884 10.9146 2.7884 10C2.7884 9.08542 3.02923 8.18696 3.48667 7.395L4.50167 5.64C4.95789 4.84743 5.61505 4.1892 6.40688 3.73169C7.1987 3.27418 8.09717 3.03359 9.01167 3.03417H11.0383C11.9525 3.03458 12.8505 3.2756 13.642 3.73302C14.4335 4.19043 15.0907 4.84813 15.5475 5.64L16.5633 7.395C16.6858 7.605 16.7892 7.8275 16.8808 8.05C16.8808 8.05333 16.885 8.0575 16.885 8.06167C16.6567 8.09681 16.426 8.11464 16.195 8.115C14.6817 8.115 14.1108 7.60917 13.4525 7.02667C12.8158 6.46333 12.0267 5.7625 10.5858 5.7625H9.72833C8.68583 5.7625 7.73917 6.14167 7.06167 6.8275C6.39833 7.49833 6.03417 8.41417 6.03417 9.41V10.5858C6.03417 11.5825 6.39833 12.4983 7.06167 13.1683C7.73917 13.8542 8.68583 14.2333 9.72833 14.2333H10.59C12.0308 14.2333 12.82 13.5325 13.4558 12.9692C14.115 12.3833 14.6817 11.8808 16.195 11.885ZM16.1992 9.1875C16.5325 9.1875 16.86 9.15694 17.1817 9.09583C17.18 9.09194 17.1794 9.08806 17.18 9.08417C17.1174 8.73692 17.02 8.39687 16.8892 8.06917C17.487 7.97548 18.0541 7.7416 18.5442 7.38667C18.5442 7.38333 18.54 7.37583 18.54 7.37167C18.2639 6.46911 17.845 5.61664 17.2992 4.84667C16.7581 4.08549 16.1029 3.4123 15.3567 2.85083C13.8129 1.68921 11.932 1.0636 10 1.06917C8.79333 1.06917 7.62083 1.3025 6.52083 1.77C5.46 2.2225 4.50167 2.86583 3.68167 3.68583C2.86167 4.50583 2.21417 5.46 1.76667 6.525C1.302 7.62599 1.06338 8.80914 1.065 10.0042C1.065 11.2108 1.29917 12.3833 1.76667 13.4825C2.21833 14.5442 2.86167 15.5017 3.68167 16.3217C4.50167 17.1417 5.45583 17.7892 6.52083 18.2375C7.62417 18.7008 8.79333 18.9383 10 18.9383C11.95 18.9383 13.8008 18.3217 15.3567 17.1575C16.1039 16.5968 16.7592 15.9232 17.2992 15.1608C17.8426 14.3894 18.2613 13.5373 18.54 12.6358C18.54 12.6325 18.5442 12.6242 18.5442 12.6208C18.0541 12.2659 17.487 12.032 16.8892 11.9383C17.0233 11.6092 17.1192 11.2683 17.18 10.9233C17.1842 10.9158 17.1842 10.9117 17.1842 10.9042C17.9085 11.0367 18.5934 11.3316 19.1875 11.7667C19.7583 12.1875 19.6475 12.6625 19.5592 12.9467C18.3025 17.0308 14.4983 20 10 20C4.47917 20 0 15.5208 0 10C0 4.47917 4.475 0 10 0C14.4983 0 18.3025 2.96917 19.5592 7.05333C19.6475 7.3375 19.7583 7.81583 19.1875 8.2375C18.5941 8.67359 17.9089 8.96831 17.1842 9.09917C17.2908 9.69583 17.2908 10.3075 17.1842 10.9042C16.8594 10.8427 16.5297 10.812 16.1992 10.8125C12.7125 10.8125 12.8925 13.165 10.5858 13.165H9.72833C8.14583 13.165 7.10333 12.0342 7.10333 10.5858V9.41C7.10333 7.96167 8.14583 6.83167 9.72833 6.83167H10.59C12.8967 6.83167 12.7167 9.18417 16.1992 9.1875Z" fill="#120730"/>
</g>
<defs>
<clipPath id="clip0_1110_6155">
<rect width="20" height="20" fill="white"/>
</clipPath>
</defs>
</svg>
