<svg viewBox="0 0 20 20" fill="none" xmlns="http://www.w3.org/2000/svg">
    <defs>
        <linearGradient id="grad1" x1="0%" y1="0%" x2="100%" y2="100%" gradientTransform="rotate(225)">
            <stop offset="0%" style="stop-color:rgb(108, 21, 251);stop-opacity:1" />
            <stop offset="100%" style="stop-color:rgb(165, 251, 255);stop-opacity:1" />
        </linearGradient>
    </defs>
    <path fill-rule="evenodd" clip-rule="evenodd" d="M5.54001 8.06752C0.136661 6.04687 2.84455 3.25585 4.5495 4.91932C7.05347 2.36023 12.9465 2.36023 15.4505 4.91932C17.1555 3.25585 19.8633 6.04687 14.46 8.06752C15.1556 6.67832 13.9631 5.44068 12.7086 7.00668C12.0903 7.77844 12.2117 9.03995 13.0812 9.11573C13.5532 9.15686 13.853 9.08712 14.6959 8.67371C18.9194 6.60255 19.9469 9.8861 20 11.6036C19.9999 14.3336 17.7457 15.6863 15.449 14.7265C15.191 16.0756 14.0226 17.094 12.6202 17.094C12.2177 17.094 11.8344 17.0101 11.4865 16.8585C11.4363 17.5385 11.2277 17.5942 10.3596 17.5988C10.2224 17.5995 10.1111 17.4861 10.1111 17.3466V16.0584C10.0947 15.9416 9.92877 15.9416 9.91236 16.0584V17.3466C9.91236 17.4861 9.80101 17.5995 9.66381 17.5988C8.79571 17.5942 8.58712 17.5385 8.537 16.8585C8.18902 17.0101 7.80576 17.094 7.40321 17.094C5.99769 17.094 4.82718 16.071 4.57274 14.7174C2.26855 15.6948 0.000169825 14.3422 0 11.6036C0.0530825 9.8861 1.08067 6.60255 5.30405 8.67371C6.14704 9.08712 6.44678 9.15686 6.9188 9.11573C7.78831 9.03995 7.90973 7.77844 7.29145 7.00668C6.03687 5.44068 4.84441 6.67832 5.54001 8.06752ZM9.0089 13.6184C8.74412 13.3412 8.41799 12.9998 7.89299 12.6701C4.34593 10.4423 15.6541 10.4423 12.107 12.6701C11.582 12.9998 11.2559 13.3412 10.9911 13.6184C10.2982 14.3437 9.70177 14.3437 9.0089 13.6184Z"/>
</svg>
