<svg width="100" height="100" viewBox="0 0 100 100" fill="none" xmlns="http://www.w3.org/2000/svg">
<path d="M50 0C22.4 0 0 22.4 0 50C0 77.6 22.4 100 50 100C77.6 100 100 77.6 100 50C100 22.4 77.6 0 50 0ZM73.2 34C72.45 41.9 69.2 61.1 67.55 69.95C66.85 73.7 65.45 74.95 64.15 75.1C61.25 75.35 59.05 73.2 56.25 71.35C51.85 68.45 49.35 66.65 45.1 63.85C40.15 60.6 43.35 58.8 46.2 55.9C46.95 55.15 59.75 43.5 60 42.45C60.0347 42.291 60.0301 42.1259 59.9865 41.969C59.943 41.8122 59.8618 41.6683 59.75 41.55C59.45 41.3 59.05 41.4 58.7 41.45C58.25 41.55 51.25 46.2 37.6 55.4C35.6 56.75 33.8 57.45 32.2 57.4C30.4 57.35 27 56.4 24.45 55.55C21.3 54.55 18.85 54 19.05 52.25C19.15 51.35 20.4 50.45 22.75 49.5C37.35 43.15 47.05 38.95 51.9 36.95C65.8 31.15 68.65 30.15 70.55 30.15C70.95 30.15 71.9 30.25 72.5 30.75C73 31.15 73.15 31.7 73.2 32.1C73.15 32.4 73.25 33.3 73.2 34Z" fill="white"/>
</svg>
