<svg width="648.000000" height="473.000000" viewBox="0 0 648 473" fill="none" xmlns="http://www.w3.org/2000/svg" xmlns:xlink="http://www.w3.org/1999/xlink">
	<desc>
			Created with Pixso.
	</desc>
	<defs>
		<linearGradient x1="648.000061" y1="0.000000" x2="0.000122" y2="473.000122" id="paint_linear_1110_1916_0" gradientUnits="userSpaceOnUse">
			<stop stop-color="#6C15FB"/>
			<stop offset="1.000000" stop-color="#A5FBFF"/>
		</linearGradient>
	</defs>
	<path id="Subtract" d="M179.49 164.18C4.42 98.71 92.16 8.28 147.4 62.18C228.53 -20.73 419.46 -20.73 500.59 62.18C555.83 8.28 643.57 98.71 468.5 164.18C491.04 119.17 452.4 79.07 411.75 129.81C391.72 154.82 395.65 195.69 423.83 198.14C439.12 199.48 448.83 197.22 476.14 183.82C612.98 116.72 646.28 223.1 648 278.75C647.99 367.2 574.96 411.03 500.54 379.93C492.18 423.64 454.33 456.64 408.89 456.64C395.85 456.64 383.43 453.92 372.16 449.01C370.53 471.04 363.77 472.85 335.65 473C331.2 473.02 327.6 469.34 327.6 464.83L327.6 423.09C327.06 419.3 321.69 419.3 321.16 423.09L321.16 464.83C321.16 469.34 317.55 473.02 313.1 473C284.98 472.85 278.22 471.04 276.59 449.01C265.32 453.92 252.9 456.64 239.86 456.64C194.32 456.64 156.4 423.5 148.15 379.64C73.5 411.31 0 367.48 0 278.75C1.71 223.1 35.01 116.72 171.85 183.82C199.16 197.22 208.87 199.48 224.16 198.14C252.34 195.69 256.27 154.82 236.24 129.81C195.59 79.07 156.95 119.17 179.49 164.18ZM291.88 344.03C283.3 335.05 272.74 323.99 255.73 313.31C140.8 241.13 507.19 241.13 392.26 313.31C375.25 323.99 364.69 335.05 356.11 344.03C333.66 367.53 314.33 367.53 291.88 344.03Z" fill="url(#paint_linear_1110_1916_0)" fill-opacity="1.000000" fill-rule="evenodd"/>
</svg>
